HIERARCHY
ROOT reference
{
  OFFSET 0 0 0
  CHANNELS 6 Xposition Yposition Zposition Zrotation Xrotation Yrotation
  JOINT Hips
  {
    OFFSET -7.22025 85.7745 -4.41207
    CHANNELS 6 Xposition Yposition Zposition Zrotation Xrotation Yrotation
    JOINT Spine
    {
      OFFSET 0 7.88368 0
      CHANNELS 6 Xposition Yposition Zposition Zrotation Xrotation Yrotation
      JOINT Spine1
      {
        OFFSET 0 24.7763 0
        CHANNELS 6 Xposition Yposition Zposition Zrotation Xrotation Yrotation
        JOINT Neck
        {
          OFFSET 0 24.6746 2.24314
          CHANNELS 6 Xposition Yposition Zposition Zrotation Xrotation Yrotation
          JOINT Head
          {
            OFFSET 0 13.4599 -1.92285
            CHANNELS 6 Xposition Yposition Zposition Zrotation Xrotation Yrotation
            End Site
            {
              OFFSET 0 24.0356 0
            }
          }
        }
        JOINT LeftShoulder
        {
          OFFSET 3.81022 22.3233 -0.325006
          CHANNELS 6 Xposition Yposition Zposition Zrotation Xrotation Yrotation
          JOINT LeftArm
          {
            OFFSET 12.5606 0 0
            CHANNELS 6 Xposition Yposition Zposition Zrotation Xrotation Yrotation
            JOINT LeftForeArm
            {
              OFFSET 28.8068 0 0
              CHANNELS 6 Xposition Yposition Zposition Zrotation Xrotation Yrotation
              JOINT LeftHand
              {
                OFFSET 23.8139 0 0
                CHANNELS 6 Xposition Yposition Zposition Zrotation Xrotation Yrotation
                End Site
                {
                  OFFSET 14.4214 0 0
                }
              }
            }
          }
        }
        JOINT RightShoulder
        {
          OFFSET -3.82306 22.3233 -0.325006
          CHANNELS 6 Xposition Yposition Zposition Zrotation Xrotation Yrotation
          JOINT RightArm
          {
            OFFSET -12.5606 0 0
            CHANNELS 6 Xposition Yposition Zposition Zrotation Xrotation Yrotation
            JOINT RightForeArm
            {
              OFFSET -28.8068 0 0
              CHANNELS 6 Xposition Yposition Zposition Zrotation Xrotation Yrotation
              JOINT RightHand
              {
                OFFSET -23.8139 0 0
                CHANNELS 6 Xposition Yposition Zposition Zrotation Xrotation Yrotation
                End Site
                {
                  OFFSET -14.4214 0 0
                }
              }
            }
          }
        }
      }
    }
    JOINT LeftUpLeg
    {
      OFFSET 9.61425 0 0
      CHANNELS 6 Xposition Yposition Zposition Zrotation Xrotation Yrotation
      JOINT LeftLeg
      {
        OFFSET 0 -41.4642 0
        CHANNELS 6 Xposition Yposition Zposition Zrotation Xrotation Yrotation
        JOINT LeftFoot
        {
          OFFSET 0 -34.276 0
          CHANNELS 6 Xposition Yposition Zposition Zrotation Xrotation Yrotation
          JOINT LeftToeBase
          {
            OFFSET 0 -6.24926 14.4214
            CHANNELS 6 Xposition Yposition Zposition Zrotation Xrotation Yrotation
            End Site
            {
              OFFSET 0 0 3.8457
            }
          }
        }
      }
    }
    JOINT RightUpLeg
    {
      OFFSET -9.61425 0 0
      CHANNELS 6 Xposition Yposition Zposition Zrotation Xrotation Yrotation
      JOINT RightLeg
      {
        OFFSET 0 -41.4642 0
        CHANNELS 6 Xposition Yposition Zposition Zrotation Xrotation Yrotation
        JOINT RightFoot
        {
          OFFSET 0 -34.276 0
          CHANNELS 6 Xposition Yposition Zposition Zrotation Xrotation Yrotation
          JOINT RightToeBase
          {
            OFFSET 0 -6.24926 14.4214
            CHANNELS 6 Xposition Yposition Zposition Zrotation Xrotation Yrotation
            End Site
            {
              OFFSET 0 0 3.8457
            }
          }
        }
      }
    }
  }
}
MOTION
Frames:	4
Frame Time:	0.004
0 0 0 0 0 -0 -11.487 80.0553 -90.3112 3.39885 -2.50999 15.1739 0 7.88368 0 1.43619 2.64181 -7.8983 1.77636e-015 24.7763 0 -4.98458 -7.78731 -8.20463 -1.77636e-015 24.6746 2.24314 8.71766 10.3484 -5.18584 0 13.4599 -1.92285 -3.64528 4.78828 -6.24771 3.81022 22.3233 -0.325006 0.634612 6.99858 13.488 12.5606 0 1.42109e-014 -41.2801 62.0959 -40.7474 28.8068 1.42109e-014 1.42109e-014 8.70305 -3.17125 -38.5971 23.8139 -7.10543e-015 3.55271e-015 -25.5536 0.543908 -2.92549 -3.82306 22.3233 -0.325006 -1.5363 8.95351 -1.04527 -12.5606 0 -1.42109e-014 79.5783 22.436 0.892823 -28.8068 0 1.42109e-014 2.2743 2.41693 1.75968 -23.8139 -1.42109e-014 1.42109e-014 9.82239 2.38898 0.080628 9.61425 1.42109e-014 1.42109e-014 5.65388 20.8787 1.59935 0 -41.4642 1.42109e-014 -5.27412 1.18894 10.8271 0 -34.276 0 -4.6802 -9.47353 17.2989 0 -6.24926 14.4214 0 0 -0 -9.61425 0 -1.42109e-014 -17.1014 -20.3823 -19.9579 7.10543e-015 -41.4642 0 4.07148 22.9178 -9.19787 0 -34.276 0 0.428598 1.47135 -14.6082 7.10543e-015 -6.24926 14.4214 1.98785e-016 0 -3.18055e-015 
0 0 0 0 0 -0 -11.582 80.0913 -90.0569 3.35783 -2.41124 15.1797 -3.55271e-015 7.88368 -1.42109e-014 1.521 2.60129 -7.87963 -2.66454e-015 24.7763 1.42109e-014 -5.01463 -7.89029 -8.19113 -1.77636e-015 24.6746 2.24314 8.67135 10.3991 -5.16286 1.77636e-015 13.4599 -1.92285 -3.58259 4.75722 -6.21184 3.81022 22.3233 -0.325006 0.61271 7.00205 13.5128 12.5606 0 1.42109e-014 -41.1638 62.2795 -40.9498 28.8068 1.42109e-014 0 8.72284 -3.19491 -38.6507 23.8139 7.10543e-015 7.10543e-015 -25.7002 0.499119 -2.7651 -3.82306 22.3233 -0.325006 -1.49876 8.89691 -1.03093 -12.5606 0 0 79.491 22.5104 0.895383 -28.8068 -7.10543e-015 1.42109e-014 2.27958 2.44313 1.73562 -23.8139 -7.10543e-015 -1.42109e-014 9.78536 2.41234 0.043364 9.61425 1.42109e-014 -1.42109e-014 5.76653 20.9267 1.59969 0 -41.4642 0 -5.22513 1.10087 10.9051 7.10543e-015 -34.276 0 -4.87737 -9.11579 17.2522 0 -6.24926 14.4214 7.95139e-016 7.95139e-016 6.36111e-015 -9.61425 -1.42109e-014 -1.42109e-014 -16.9773 -20.4237 -19.9352 0 -41.4642 0 4.02047 23.1436 -9.11596 -7.10543e-015 -34.276 7.10543e-015 0.395514 1.14765 -14.6619 0 -6.24926 14.4214 1.98785e-016 3.97569e-016 -0 
0 0 0 0 0 -0 -11.7054 80.1283 -89.7768 3.3013 -2.32718 15.2503 3.55271e-015 7.88368 -1.42109e-014 1.54989 2.51234 -7.88722 1.77636e-015 24.7763 -1.42109e-014 -4.98973 -7.91864 -8.19878 0 24.6746 2.24314 8.69472 10.4215 -5.14229 3.55271e-015 13.4599 -1.92285 -3.63973 4.79068 -6.19466 3.81022 22.3233 -0.325006 0.598297 6.99156 13.5146 12.5606 2.84217e-014 -1.42109e-014 -40.8803 62.5188 -41.279 28.8068 0 0 8.73902 -3.20881 -38.67 23.8139 0 0 -25.6858 0.516003 -2.86863 -3.82306 22.3233 -0.325006 -1.51378 9.316 -1.286 -12.5606 -2.84217e-014 0 79.1851 23.3251 1.5512 -28.8068 0 0 2.33071 2.19176 1.7274 -23.8139 0 0 9.66734 2.16419 0.089205 9.61425 1.42109e-014 -1.42109e-014 5.9834 20.9643 1.61247 0 -41.4642 -1.42109e-014 -5.23563 1.08397 10.8482 -7.10543e-015 -34.276 0 -5.15495 -8.80711 17.2341 1.42109e-014 -6.24926 14.4214 7.95139e-016 -1.59028e-015 -6.36111e-015 -9.61425 0 -1.42109e-014 -16.7936 -20.3759 -19.8924 7.10543e-015 -41.4642 -1.42109e-014 3.9568 23.2644 -9.08081 0 -34.276 7.10543e-015 0.376572 0.750058 -14.7262 0 -6.24926 14.4214 3.97569e-016 -7.95139e-016 -3.18055e-015 
0 0 0 0 0 -0 -11.8176 80.1702 -89.5124 3.25823 -2.22016 15.3182 0 7.88368 0 1.56712 2.44702 -7.8991 -8.88178e-016 24.7763 0 -4.9313 -7.99421 -8.21039 0 24.6746 2.24314 8.65553 10.4562 -5.11455 8.88178e-016 13.4599 -1.92285 -3.64516 4.76783 -6.16217 3.81022 22.3233 -0.325006 0.58672 6.9341 13.4783 12.5606 0 1.42109e-014 -40.635 62.8528 -41.547 28.8068 -7.10543e-015 1.42109e-014 8.80203 -3.29522 -38.6933 23.8139 -1.42109e-014 3.55271e-015 -25.6772 0.468129 -2.93261 -3.82306 22.3233 -0.325006 -1.54982 9.30413 -1.28621 -12.5606 0 -1.42109e-014 79.1089 23.4264 1.62634 -28.8068 0 1.42109e-014 2.32041 2.22735 1.69598 -23.8139 7.10543e-015 0 9.78672 2.20343 0.121407 9.61425 -1.42109e-014 0 6.14845 20.9943 1.41865 0 -41.4642 -1.42109e-014 -5.24341 1.02186 11.1647 0 -34.276 1.42109e-014 -5.39191 -8.46753 17.1084 1.42109e-014 -6.24926 14.4214 -7.95139e-016 0 -0 -9.61425 0 0 -16.6749 -20.3526 -19.8361 7.10543e-015 -41.4642 -7.10543e-015 3.9773 23.4004 -9.04945 0 -34.276 -7.10543e-015 0.326493 0.388951 -14.8475 0 -6.24926 14.4214 1.98785e-016 -3.97569e-016 3.18055e-015 
